<svg width="18" height="18" viewBox="0 0 18 18" fill="none" xmlns="http://www.w3.org/2000/svg">
<path d="M1.75 15.75H3.5V7C3.5 6.88509 3.52263 6.77131 3.56661 6.66515C3.61058 6.55899 3.67503 6.46253 3.75628 6.38128C3.83753 6.30003 3.93399 6.23558 4.04015 6.19161C4.14631 6.14763 4.26009 6.125 4.375 6.125H14.875V4.375C14.875 4.14294 14.7828 3.92038 14.6187 3.75628C14.4546 3.59219 14.2321 3.5 14 3.5H11.3304C11.1099 1.5365 9.45875 0 7.4375 0C5.41625 0 3.76512 1.5365 3.54462 3.5H0.875C0.642936 3.5 0.420376 3.59219 0.256281 3.75628C0.0921871 3.92038 0 4.14294 0 4.375V14C0 14.2298 0.0452651 14.4574 0.133211 14.6697C0.221157 14.882 0.350061 15.0749 0.512563 15.2374C0.675066 15.3999 0.867984 15.5288 1.0803 15.6168C1.29262 15.7047 1.52019 15.75 1.75 15.75ZM7.4375 1.75C8.49362 1.75 9.37825 2.5025 9.58125 3.5H5.29375C5.49675 2.5025 6.38137 1.75 7.4375 1.75Z" fill="white"/>
<path d="M16.625 7.875H6.125C5.89294 7.875 5.67038 7.96719 5.50628 8.13128C5.34219 8.29538 5.25 8.51794 5.25 8.75V15.75C5.25 15.9798 5.29526 16.2074 5.38321 16.4197C5.47116 16.632 5.60006 16.8249 5.76256 16.9874C5.92507 17.1499 6.11798 17.2788 6.3303 17.3668C6.54262 17.4547 6.77019 17.5 7 17.5H15.75C15.9798 17.5 16.2074 17.4547 16.4197 17.3668C16.632 17.2788 16.8249 17.1499 16.9874 16.9874C17.1499 16.8249 17.2788 16.632 17.3668 16.4197C17.4547 16.2074 17.5 15.9798 17.5 15.75V8.75C17.5 8.51794 17.4078 8.29538 17.2437 8.13128C17.0796 7.96719 16.8571 7.875 16.625 7.875ZM11.375 14C8.96262 14 7 12.0374 7 9.625H8.75C8.75 11.0723 9.92775 12.25 11.375 12.25C12.8222 12.25 14 11.0723 14 9.625H15.75C15.75 12.0374 13.7874 14 11.375 14Z" fill="white"/>
</svg>
