<svg width="21" height="19" viewBox="0 0 21 19" fill="none" xmlns="http://www.w3.org/2000/svg">
<path d="M0.514648 2.33029C0.514648 3.09669 1.14485 3.72846 1.9326 3.72846C2.72036 3.72846 3.35056 3.10705 3.35056 2.33029C3.34005 1.55353 2.70985 0.932115 1.9221 0.932115C1.13435 0.932115 0.514648 1.55353 0.514648 2.33029ZM17.6772 2.33029C17.6772 3.09669 18.3074 3.72846 19.0951 3.72846C19.8724 3.72846 20.5131 3.10705 20.5131 2.33029C20.5131 1.55353 19.8829 0.932115 19.0951 0.932115C18.3179 0.932115 17.6772 1.55353 17.6772 2.33029ZM9.65258 1.39817C9.65258 2.16458 10.2828 2.79635 11.0705 2.79635C11.8478 2.79635 12.4885 2.17494 12.4885 1.39817C12.4885 0.631767 11.8583 0 11.0705 0C10.2828 0 9.65258 0.62141 9.65258 1.39817ZM16.2697 8.65832H13.6229V4.92985C13.6229 3.90453 12.7721 3.06562 11.7322 3.06562H10.1252C9.0854 3.06562 8.23462 3.90453 8.23462 4.92985V8.65832H4.92606V10.3568H16.2592V8.65832H16.2697ZM9.56855 11.175C9.04338 11.175 8.62325 11.5893 8.62325 12.1071V15.8356C8.62325 16.3534 9.04338 16.7677 9.56855 16.7677C10.0937 16.7677 10.5139 16.3534 10.5139 15.8356V12.1071C10.5139 11.5893 10.0937 11.175 9.56855 11.175ZM11.8688 11.175C11.3436 11.175 10.9235 11.5893 10.9235 12.1071V15.8356C10.9235 16.3534 11.3436 16.7677 11.8688 16.7677C12.394 16.7677 12.8141 16.3534 12.8141 15.8356V12.1071C12.8141 11.5893 12.394 11.175 11.8688 11.175Z" fill="white"/>
<path d="M19.0951 4.48468C18.0553 4.48468 17.2045 5.32359 17.2045 6.34891V11.0095C17.2045 11.1648 17.2255 11.3202 17.2675 11.4756L14.9778 12.7805C14.5682 13.0187 14.3476 13.4641 14.4211 13.9301C14.4106 13.9612 14.4106 13.9923 14.4211 14.0233V17.7518C14.3581 18.3836 14.8308 18.9428 15.4715 18.9946C16.1122 19.0568 16.6793 18.5907 16.7319 17.9589C16.7424 17.8864 16.7424 17.8243 16.7319 17.7518V14.4065L19.4312 12.8737C19.4312 12.8737 19.4312 12.8323 19.5048 12.8116C20.366 12.6252 20.9857 11.8691 20.9857 10.9991V6.31784C20.9962 5.29252 20.135 4.47433 19.0951 4.48468ZM6.33353 12.7391L3.78121 11.3306C3.79172 11.2063 3.79172 11.0923 3.78121 10.9681V6.31784C3.78121 5.29252 2.93044 4.45361 1.89061 4.45361C0.850773 4.45361 0 5.28216 0 6.31784V10.9784C0 11.952 0.756243 12.7598 1.73306 12.8427C1.77507 12.8841 1.81708 12.9152 1.8696 12.9566L4.56897 14.4376V17.7311C4.56897 18.3628 5.08363 18.8807 5.73484 18.8807C6.37555 18.8807 6.90071 18.3732 6.90071 17.7311V13.9301C6.98474 13.4537 6.76417 12.9773 6.33353 12.7391Z" fill="white"/>
</svg>
